<?xml version="1.0" encoding="utf-8"?>
<!-- Generator: Adobe Illustrator 25.1.0, SVG Export Plug-In . SVG Version: 6.00 Build 0)  -->
<svg version="1.1" id="Layer_1" xmlns="http://www.w3.org/2000/svg" xmlns:xlink="http://www.w3.org/1999/xlink" x="0px" y="0px"
	 viewBox="0 0 753 285" style="enable-background:new 0 0 753 285;" xml:space="preserve">
<style type="text/css">
	.st0{clip-path:url(#SVGID_2_);}
	.st1{clip-path:url(#SVGID_4_);fill:#435B71;}
</style>
<g>
	<g>
		<defs>
			<rect id="SVGID_1_" x="8" y="0.4" width="737.2" height="284.7"/>
		</defs>
		<clipPath id="SVGID_2_">
			<use xlink:href="#SVGID_1_"  style="overflow:visible;"/>
		</clipPath>
		<g class="st0">
			<defs>
				<rect id="SVGID_3_" x="8" y="0.4" width="737.2" height="284.7"/>
			</defs>
			<clipPath id="SVGID_4_">
				<use xlink:href="#SVGID_3_"  style="overflow:visible;"/>
			</clipPath>
			<path class="st1" d="M562.9,283.9h115.3h0.8v0c17.9-0.3,34.2-9.1,45.9-23.2c11.9-14.2,19.4-34.2,19.4-56h-0.1v-0.4v-0.9
				c-0.2-21.4-7.5-41-19.1-55c-11.9-14.3-28.4-23.4-46.6-23.4v0.1h-0.4H674l-15.4,0.1l-3.8-18c-8.8-41.1-32.9-75.1-64.4-92.6
				c-6.1-3.4-12.6-6.2-19.3-8.3c-9.1-2.8-18.7-4.4-28.4-4.5h-1.3c-26.9,0-51.9,11-71.7,29.4c8.8,14.3,16,30,21.1,46.9
				c25,3,47.7,16.4,64.5,36.6c18.8,22.7,30.6,54.1,30.8,88.6l0,0.2v0.9v0.4l0,0.1C586.2,234.8,577.3,262.2,562.9,283.9 M267.2,283.9
				h0.2h0.3h212.8h0.8v0l0.3,0l0.5-0.1l1-0.1h0.5l1.1-0.1l0.5-0.1l1,0l0.6-0.1l1.1,0l0.6-0.1l0.2-0.1l5.6-1.1l0.5-0.3l5.6-1.8
				l0.5-0.3l2.4-1l0.5-0.3l2.4-1.1l0.6-0.4l0.9-0.5l0.5-0.3l0.9-0.5l0.5-0.4l0.9-0.5l0.5-0.3l0.1-0.1l0.7-0.3h0l0.1-0.1l0.5-0.5
				l0.1-0.1l0.5-0.4l0.1-0.1l0.5-0.5l0.1-0.1h0.1l0.7-0.3l0.1-0.1l0.5-0.5l0.1-0.1l0.6-0.4l0-0.1l0.6-0.5l0.1-0.1l0.7-0.3l0,0
				l0.6-0.5v-0.1l0.6-0.5l0.1-0.1l0.6-0.5l0.1,0l0.6-0.5h0l0.5-0.6h0.1l0.6-0.6h0l0.6-0.6h0l0.6-0.6h0.1l0.4-0.7h0.1l0.5-0.6h0
				l0.6-0.6h0l0.5-0.6h0.1l0.4-0.7h0.1l0.6-0.6h0l0.6-0.6l0.6-0.6h0.1c12-14.2,19.4-34.2,19.4-56v-0.4v-0.9
				c-0.2-21.4-7.4-41-19.2-55.1c-11.9-14.3-28.4-23.3-46.5-23.4v0.1h-0.4h-4.1l-15.3,0.1l-3.9-18l-1-4l-0.2-0.6l-0.2-0.8l-1.1-3.8
				l-0.1-0.2l0-0.1l-0.1-0.5l-0.2-0.8l-0.1-0.2l-0.7-2.3h0c-2.9-9.6-6.7-18.8-11.3-27.4c-12-22.6-29.1-40.8-49.5-52.2
				c-6.1-3.3-12.7-6.2-19.3-8.3c-9-2.8-18.7-4.4-28.3-4.5h-1.3c-27.8,0-53.5,11.6-73.5,31.1c-3.9,3.8-7.8,8-11.2,12.3
				c-3.3,4.1-6.6,8.9-9.7,13.8l-0.3,0.5l-0.4,0.6l-8.8,13.6l-13.5-5.7c-3.6-1.5-7.5-2.8-11.1-3.7l-2.9-0.7
				c-4.5-0.9-9.4-1.6-14.1-1.6h-1.6c-26.8,0-51,13.8-67.9,35.7c-3.1,4.2-6.3,8.9-9,13.7c-2.7,4.8-5.1,10-7.1,15.4l-0.3,0.8l-7.3,19
				l-16.5-6.2c-2.8-1-6-1.9-9-2.5c-3.2-0.6-6.4-1-9.6-1h-0.8c-16.4,0.3-31.5,8.4-42.3,21.4C16,171.3,9.1,189.8,9,209.9h0.1v0.4v0.9
				H9c0.2,19.8,7,38,17.8,51c11,13.2,26.3,21.6,43,21.7v0h0.3H267.2z"/>
		</g>
	</g>
</g>
</svg>
