<?xml version="1.0" encoding="utf-8"?>
<!-- Generator: Adobe Illustrator 25.1.0, SVG Export Plug-In . SVG Version: 6.00 Build 0)  -->
<svg version="1.1" id="Layer_1" xmlns="http://www.w3.org/2000/svg" xmlns:xlink="http://www.w3.org/1999/xlink" x="0px" y="0px"
	 viewBox="0 0 50 48" style="enable-background:new 0 0 50 48;" xml:space="preserve">
<style type="text/css">
	.st0{fill:#DCDDDE;}
	.st1{fill:#FFFFFF;stroke:#2F75BB;stroke-width:3;stroke-miterlimit:10;}
</style>
<path class="st0" d="M43.9,13.1L43.9,13.1c-0.2,0-0.4,0-0.6,0c-0.7-3.1-3.4-5.4-6.6-5.4h0c-1,0-1.9,0.2-2.7,0.6
	C32.7,4.7,29.3,2,25.2,2h-0.1c-3.8,0-7.1,2.3-8.5,5.6h0.1l3.9,0l0.6,3.3l1.4,0.7l2.7-1.5l3.5,3.3l-1.5,3l0.4,1.3l3.6,0.9l0.1,4.9
	l12.1,0.1l0.1,0l0.1,0h0c2.9,0,5.3-2.3,5.3-5.2v-0.1C49.1,15.5,46.8,13.2,43.9,13.1"/>
<g>
	<g>
		<path class="st1" d="M23,8h-1.9c-0.6-1.9-2.3-3.4-4.5-3.4S12.8,6,12.3,8h-1.9C9.7,8,9.1,8.5,9.1,9.2v2.5c0,1.6,1.3,2.9,2.9,2.9
			h9.3c1.6,0,2.9-1.3,2.9-2.9V9.2C24.3,8.5,23.7,8,23,8z"/>
		<path class="st1" d="M26.4,9.6H26v2.1c0,2.6-2.1,4.6-4.6,4.6h-9.3c-2.6,0-4.6-2.1-4.6-4.6V9.6H7c-2.6,0-4.6,2.1-4.6,4.6v21
			c0,2.6,2.1,4.6,4.6,4.6h12.4l0.4-2.1c0.2-0.9,0.6-1.8,1.3-2.5l1.3-1.3H8.7c-0.7,0-1.3-0.6-1.3-1.3s0.6-1.3,1.3-1.3h16
			c0.1,0,0.2,0,0.2,0h0l6.1-6.1V14.3C31,11.7,29,9.6,26.4,9.6L26.4,9.6z"/>
		<path class="st1" d="M23.5,45c-0.3,0-0.7-0.1-0.9-0.4c-0.3-0.3-0.4-0.7-0.4-1.1l0.9-5.1c0-0.3,0.2-0.5,0.4-0.7L36,25.3
			c1.5-1.5,3-1.1,3.9-0.3l2.1,2.1c1.1,1.1,1.1,3,0,4.2L29.5,43.7c-0.2,0.2-0.4,0.3-0.7,0.4L23.7,45C23.7,45,23.6,45,23.5,45L23.5,45
			z M28.6,42.8L28.6,42.8L28.6,42.8z"/>
	</g>
</g>
</svg>
